<?xml version="1.0" standalone="no"?>
<!DOCTYPE svg PUBLIC "-//W3C//DTD SVG 20010904//EN"
 "http://www.w3.org/TR/2001/REC-SVG-20010904/DTD/svg10.dtd">
<svg version="1.0" xmlns="http://www.w3.org/2000/svg"
 width="331.000000pt" height="330.000000pt" viewBox="0 0 331.000000 330.000000"
 preserveAspectRatio="xMidYMid meet">

<g transform="translate(0.000000,330.000000) scale(0.100000,-0.100000)"
fill="#ffffff" stroke="none">
<path d="M3260 1660 l0 -1640 -1630 0 c-1080 0 -1630 -3 -1630 -10 0 -7 558
-10 1655 -10 l1655 0 0 1650 0 1650 -25 0 -25 0 0 -1640z"/>
<path d="M1332 2443 l3 -78 285 0 285 0 3 78 3 77 -51 0 c-49 0 -50 -1 -50
-30 l0 -30 -70 0 -70 0 0 30 c0 30 -1 30 -55 30 -54 0 -55 0 -55 -30 l0 -30
-65 0 -65 0 0 30 c0 29 -1 30 -50 30 l-51 0 3 -77z"/>
<path d="M1422 2308 l3 -33 195 0 195 0 3 33 3 32 -201 0 -201 0 3 -32z"/>
<path d="M1470 2239 c0 -11 -46 -339 -55 -391 l-4 -28 209 0 210 0 -5 28 c-10
53 -55 376 -55 389 0 10 -33 13 -150 13 -102 0 -150 -4 -150 -11z"/>
<path d="M1382 1788 c-7 -7 -12 -25 -12 -40 l0 -28 250 0 250 0 0 28 c0 15 -5
33 -12 40 -17 17 -459 17 -476 0z"/>
<path d="M1286 1684 c-11 -10 -16 -34 -16 -70 l0 -54 350 0 350 0 0 54 c0 90
16 86 -350 86 -276 0 -321 -2 -334 -16z"/>
<path d="M584 1326 c-48 -21 -74 -61 -74 -115 0 -53 18 -84 60 -106 37 -19 83
-19 121 1 24 12 28 18 19 29 -9 11 -17 11 -45 -1 -59 -24 -115 14 -115 78 0
68 64 108 122 77 16 -9 24 -8 36 5 14 14 12 17 -21 31 -44 18 -62 18 -103 1z"/>
<path d="M760 1215 c0 -102 3 -125 14 -125 11 0 16 15 18 53 l3 52 65 0 65 0
3 -52 c3 -45 6 -53 23 -53 19 0 19 6 17 122 -3 108 -5 123 -20 126 -15 3 -18
-5 -18 -53 l0 -56 -67 3 -68 3 -3 53 c-2 37 -7 52 -18 52 -11 0 -14 -23 -14
-125z"/>
<path d="M1017 1334 c-4 -4 -7 -61 -7 -126 l0 -118 110 0 c103 0 110 1 110 20
0 18 -7 20 -85 20 l-85 0 0 35 0 35 85 0 c69 0 85 3 85 15 0 12 -16 15 -85 15
l-85 0 0 35 0 35 86 0 c76 0 85 2 82 18 -3 15 -17 17 -104 20 -55 1 -103 0
-107 -4z"/>
<path d="M1304 1326 c-35 -16 -49 -51 -35 -89 12 -30 29 -37 90 -37 54 0 85
-18 79 -46 -3 -17 -13 -19 -86 -22 -74 -3 -82 -5 -82 -22 0 -18 7 -20 80 -20
73 0 83 3 105 25 28 27 32 62 11 91 -11 14 -30 20 -82 24 -74 6 -100 24 -75
54 10 12 32 16 83 16 61 0 69 2 66 18 -3 14 -15 17 -63 19 -34 2 -73 -3 -91
-11z"/>
<path d="M1560 1333 c-31 -12 -50 -37 -50 -68 0 -46 25 -63 94 -67 62 -3 85
-20 73 -52 -5 -13 -22 -16 -87 -16 -73 0 -80 -2 -80 -20 0 -18 7 -20 76 -20
102 0 134 17 134 73 0 46 -31 67 -100 67 -65 0 -88 18 -69 53 8 14 24 17 79
17 63 0 70 2 70 20 0 18 -6 20 -62 19 -35 0 -70 -3 -78 -6z"/>
<path d="M1760 1216 l0 -126 70 0 c63 0 70 2 70 20 0 17 -7 20 -50 20 l-49 0
-3 102 c-3 89 -5 103 -20 106 -16 3 -18 -8 -18 -122z"/>
<path d="M2005 1331 c-55 -24 -90 -97 -74 -154 21 -79 119 -112 189 -65 68 46
73 153 9 200 -29 22 -94 32 -124 19z m99 -52 c21 -16 26 -29 26 -63 0 -81 -82
-119 -138 -63 -76 76 27 193 112 126z"/>
<path d="M2220 1216 c0 -119 1 -126 20 -126 18 0 20 7 20 55 l0 55 41 0 c39 0
41 -1 64 -55 18 -40 30 -55 45 -55 20 0 20 0 0 51 l-20 50 20 26 c25 32 26 64
2 94 -16 19 -31 23 -105 27 l-87 5 0 -127z m163 62 c19 -29 -9 -48 -69 -48
l-54 0 0 35 0 36 56 -3 c40 -2 60 -8 67 -20z"/>
<path d="M2470 1215 l0 -125 105 0 c98 0 105 1 105 20 0 18 -7 20 -85 20 l-85
0 0 35 0 35 85 0 c69 0 85 3 85 15 0 12 -16 15 -85 15 l-85 0 0 35 0 35 85 0
c78 0 85 2 85 20 0 19 -7 20 -105 20 l-105 0 0 -125z"/>
</g>
</svg>
